<mxfile host="app.diagrams.net" modified="2023-12-21T13:33:30.732Z" agent="Mozilla/5.0 (Windows NT 10.0; Win64; x64) AppleWebKit/537.36 (KHTML, like Gecko) Chrome/120.0.0.0 Safari/537.36 Edg/120.0.0.0" etag="mYoloLzhlJx-Uf3uEi90" version="22.1.11" type="device">
  <diagram name="Страница — 1" id="FcqaN_NnATv4-uFxsooN">
    <mxGraphModel dx="2345" dy="1853" grid="0" gridSize="10" guides="1" tooltips="1" connect="1" arrows="1" fold="1" page="1" pageScale="1" pageWidth="827" pageHeight="1169" math="0" shadow="0">
      <root>
        <mxCell id="0" />
        <mxCell id="1" parent="0" />
        <mxCell id="jwCLRGJzKMUdnOh82-B3-4" value="&lt;font style=&quot;font-size: 10px;&quot;&gt;Выйти из приложения&lt;/font&gt;" style="ellipse;whiteSpace=wrap;html=1;" parent="1" vertex="1">
          <mxGeometry x="145" y="168" width="120" height="80" as="geometry" />
        </mxCell>
        <mxCell id="jwCLRGJzKMUdnOh82-B3-9" value="Администратор" style="shape=umlActor;verticalLabelPosition=bottom;verticalAlign=top;html=1;outlineConnect=0;" parent="1" vertex="1">
          <mxGeometry x="60" y="-70" width="30" height="60" as="geometry" />
        </mxCell>
        <mxCell id="jwCLRGJzKMUdnOh82-B3-10" value="Авторизованный пользователь" style="shape=umlActor;verticalLabelPosition=bottom;verticalAlign=top;html=1;outlineConnect=0;" parent="1" vertex="1">
          <mxGeometry x="340" y="-70" width="30" height="60" as="geometry" />
        </mxCell>
        <mxCell id="jwCLRGJzKMUdnOh82-B3-11" value="" style="endArrow=classic;html=1;rounded=0;exitX=1;exitY=0.3333333333333333;exitDx=0;exitDy=0;exitPerimeter=0;entryX=0.5;entryY=0;entryDx=0;entryDy=0;" parent="1" source="jwCLRGJzKMUdnOh82-B3-9" target="jwCLRGJzKMUdnOh82-B3-4" edge="1">
          <mxGeometry width="50" height="50" relative="1" as="geometry">
            <mxPoint x="200" y="-20" as="sourcePoint" />
            <mxPoint x="250" y="-70" as="targetPoint" />
          </mxGeometry>
        </mxCell>
        <mxCell id="jwCLRGJzKMUdnOh82-B3-12" value="&lt;font style=&quot;font-size: 10px;&quot;&gt;Просмотр товаров&lt;/font&gt;" style="ellipse;whiteSpace=wrap;html=1;" parent="1" vertex="1">
          <mxGeometry x="154" y="-344" width="120" height="80" as="geometry" />
        </mxCell>
        <mxCell id="jwCLRGJzKMUdnOh82-B3-13" value="&lt;font style=&quot;font-size: 10px;&quot;&gt;Манипуляция объектами бд&lt;/font&gt;" style="ellipse;whiteSpace=wrap;html=1;" parent="1" vertex="1">
          <mxGeometry x="-90" y="-210" width="120" height="80" as="geometry" />
        </mxCell>
        <mxCell id="jwCLRGJzKMUdnOh82-B3-15" value="" style="endArrow=classic;html=1;rounded=0;entryX=0.5;entryY=1;entryDx=0;entryDy=0;" parent="1" target="jwCLRGJzKMUdnOh82-B3-12" edge="1">
          <mxGeometry width="50" height="50" relative="1" as="geometry">
            <mxPoint x="90" y="-50" as="sourcePoint" />
            <mxPoint x="210" y="-60" as="targetPoint" />
          </mxGeometry>
        </mxCell>
        <mxCell id="jwCLRGJzKMUdnOh82-B3-16" value="" style="endArrow=classic;html=1;rounded=0;exitX=0;exitY=0.3333333333333333;exitDx=0;exitDy=0;exitPerimeter=0;entryX=0.5;entryY=1;entryDx=0;entryDy=0;" parent="1" source="jwCLRGJzKMUdnOh82-B3-9" target="jwCLRGJzKMUdnOh82-B3-13" edge="1">
          <mxGeometry width="50" height="50" relative="1" as="geometry">
            <mxPoint x="-50" y="50" as="sourcePoint" />
            <mxPoint as="targetPoint" />
          </mxGeometry>
        </mxCell>
        <mxCell id="jwCLRGJzKMUdnOh82-B3-17" value="&lt;font style=&quot;font-size: 10px;&quot;&gt;Смена пароля&lt;/font&gt;" style="ellipse;whiteSpace=wrap;html=1;" parent="1" vertex="1">
          <mxGeometry x="515" y="-297" width="120" height="80" as="geometry" />
        </mxCell>
        <mxCell id="jwCLRGJzKMUdnOh82-B3-19" value="" style="endArrow=classic;html=1;rounded=0;exitX=0;exitY=0.3333333333333333;exitDx=0;exitDy=0;exitPerimeter=0;entryX=0.5;entryY=0;entryDx=0;entryDy=0;" parent="1" source="jwCLRGJzKMUdnOh82-B3-10" target="jwCLRGJzKMUdnOh82-B3-4" edge="1">
          <mxGeometry width="50" height="50" relative="1" as="geometry">
            <mxPoint x="160" y="-40" as="sourcePoint" />
            <mxPoint x="210" y="-90" as="targetPoint" />
          </mxGeometry>
        </mxCell>
        <mxCell id="jwCLRGJzKMUdnOh82-B3-20" value="" style="endArrow=classic;html=1;rounded=0;exitX=0;exitY=0.3333333333333333;exitDx=0;exitDy=0;exitPerimeter=0;entryX=0.5;entryY=1;entryDx=0;entryDy=0;" parent="1" source="jwCLRGJzKMUdnOh82-B3-10" target="jwCLRGJzKMUdnOh82-B3-12" edge="1">
          <mxGeometry width="50" height="50" relative="1" as="geometry">
            <mxPoint x="200" y="-60" as="sourcePoint" />
            <mxPoint x="250" y="-110" as="targetPoint" />
          </mxGeometry>
        </mxCell>
        <mxCell id="jwCLRGJzKMUdnOh82-B3-22" value="&lt;font style=&quot;font-size: 10px;&quot;&gt;Просмотр корзины&lt;/font&gt;" style="ellipse;whiteSpace=wrap;html=1;" parent="1" vertex="1">
          <mxGeometry x="464" y="-90" width="120" height="80" as="geometry" />
        </mxCell>
        <mxCell id="jwCLRGJzKMUdnOh82-B3-30" value="&lt;font style=&quot;font-size: 10px;&quot;&gt;Добавление товаров в корзину&lt;/font&gt;" style="ellipse;whiteSpace=wrap;html=1;" parent="1" vertex="1">
          <mxGeometry x="639" y="-178" width="120" height="80" as="geometry" />
        </mxCell>
        <mxCell id="jwCLRGJzKMUdnOh82-B3-31" value="&lt;font style=&quot;font-size: 10px;&quot;&gt;Удаление товаров из корзины&lt;/font&gt;" style="ellipse;whiteSpace=wrap;html=1;" parent="1" vertex="1">
          <mxGeometry x="682" y="-90" width="120" height="80" as="geometry" />
        </mxCell>
        <mxCell id="jwCLRGJzKMUdnOh82-B3-32" value="&lt;font style=&quot;font-size: 10px;&quot;&gt;Выбор доставки&lt;/font&gt;" style="ellipse;whiteSpace=wrap;html=1;" parent="1" vertex="1">
          <mxGeometry x="629" y="5" width="120" height="80" as="geometry" />
        </mxCell>
        <mxCell id="jwCLRGJzKMUdnOh82-B3-39" value="" style="endArrow=classic;html=1;rounded=0;exitX=1;exitY=0.5;exitDx=0;exitDy=0;entryX=0;entryY=0.5;entryDx=0;entryDy=0;" parent="1" source="jwCLRGJzKMUdnOh82-B3-22" target="jwCLRGJzKMUdnOh82-B3-31" edge="1">
          <mxGeometry relative="1" as="geometry">
            <mxPoint x="680" y="-60.370000000000005" as="sourcePoint" />
            <mxPoint x="780" y="-60.370000000000005" as="targetPoint" />
          </mxGeometry>
        </mxCell>
        <mxCell id="jwCLRGJzKMUdnOh82-B3-41" value="" style="endArrow=classic;html=1;rounded=0;exitX=1;exitY=1;exitDx=0;exitDy=0;entryX=0;entryY=0;entryDx=0;entryDy=0;" parent="1" source="jwCLRGJzKMUdnOh82-B3-22" target="jwCLRGJzKMUdnOh82-B3-32" edge="1">
          <mxGeometry relative="1" as="geometry">
            <mxPoint x="662.4264068711932" y="-31.715728752538098" as="sourcePoint" />
            <mxPoint x="700" y="59.629999999999995" as="targetPoint" />
          </mxGeometry>
        </mxCell>
        <mxCell id="vjD7b1Y-PDaWvfG9B_9B-2" value="" style="endArrow=classic;html=1;rounded=0;exitX=1;exitY=0.3333333333333333;exitDx=0;exitDy=0;exitPerimeter=0;entryX=0;entryY=0.5;entryDx=0;entryDy=0;" parent="1" source="jwCLRGJzKMUdnOh82-B3-10" target="jwCLRGJzKMUdnOh82-B3-22" edge="1">
          <mxGeometry width="50" height="50" relative="1" as="geometry">
            <mxPoint x="458" y="-35" as="sourcePoint" />
            <mxPoint x="508" y="-85" as="targetPoint" />
          </mxGeometry>
        </mxCell>
        <mxCell id="vjD7b1Y-PDaWvfG9B_9B-3" value="" style="endArrow=classic;html=1;rounded=0;entryX=0;entryY=0.5;entryDx=0;entryDy=0;exitX=1;exitY=0;exitDx=0;exitDy=0;" parent="1" source="jwCLRGJzKMUdnOh82-B3-22" target="jwCLRGJzKMUdnOh82-B3-30" edge="1">
          <mxGeometry width="50" height="50" relative="1" as="geometry">
            <mxPoint x="624" y="-91" as="sourcePoint" />
            <mxPoint x="674" y="-141" as="targetPoint" />
          </mxGeometry>
        </mxCell>
        <mxCell id="vjD7b1Y-PDaWvfG9B_9B-4" value="&lt;font style=&quot;font-size: 10px;&quot;&gt;Просмотр профиля&lt;/font&gt;" style="ellipse;whiteSpace=wrap;html=1;" parent="1" vertex="1">
          <mxGeometry x="360" y="-210" width="120" height="80" as="geometry" />
        </mxCell>
        <mxCell id="vjD7b1Y-PDaWvfG9B_9B-5" value="" style="endArrow=classic;html=1;rounded=0;entryX=0.21;entryY=0.917;entryDx=0;entryDy=0;entryPerimeter=0;" parent="1" target="vjD7b1Y-PDaWvfG9B_9B-4" edge="1">
          <mxGeometry width="50" height="50" relative="1" as="geometry">
            <mxPoint x="372" y="-52" as="sourcePoint" />
            <mxPoint x="364" y="-131" as="targetPoint" />
          </mxGeometry>
        </mxCell>
        <mxCell id="vjD7b1Y-PDaWvfG9B_9B-6" value="" style="endArrow=classic;html=1;rounded=0;entryX=0;entryY=0.5;entryDx=0;entryDy=0;exitX=1;exitY=0;exitDx=0;exitDy=0;" parent="1" source="vjD7b1Y-PDaWvfG9B_9B-4" target="jwCLRGJzKMUdnOh82-B3-17" edge="1">
          <mxGeometry width="50" height="50" relative="1" as="geometry">
            <mxPoint x="372" y="-217" as="sourcePoint" />
            <mxPoint x="422" y="-267" as="targetPoint" />
          </mxGeometry>
        </mxCell>
        <mxCell id="vjD7b1Y-PDaWvfG9B_9B-7" value="&lt;font style=&quot;font-size: 10px;&quot;&gt;Оформление заказа&lt;/font&gt;" style="ellipse;whiteSpace=wrap;html=1;" parent="1" vertex="1">
          <mxGeometry x="477" y="20" width="120" height="80" as="geometry" />
        </mxCell>
        <mxCell id="vjD7b1Y-PDaWvfG9B_9B-8" value="" style="endArrow=classic;html=1;rounded=0;exitX=1;exitY=0.3333333333333333;exitDx=0;exitDy=0;exitPerimeter=0;entryX=0;entryY=0;entryDx=0;entryDy=0;" parent="1" source="jwCLRGJzKMUdnOh82-B3-10" target="vjD7b1Y-PDaWvfG9B_9B-7" edge="1">
          <mxGeometry width="50" height="50" relative="1" as="geometry">
            <mxPoint x="416" y="120" as="sourcePoint" />
            <mxPoint x="466" y="70" as="targetPoint" />
          </mxGeometry>
        </mxCell>
        <mxCell id="uKLCOhGHL4nUg3bJLCXZ-1" value="Авторизация" style="ellipse;whiteSpace=wrap;html=1;" vertex="1" parent="1">
          <mxGeometry x="325" y="198" width="120" height="80" as="geometry" />
        </mxCell>
        <mxCell id="uKLCOhGHL4nUg3bJLCXZ-2" value="&lt;span style=&quot;font-size: 10px;&quot;&gt;Регистрация&lt;/span&gt;" style="ellipse;whiteSpace=wrap;html=1;" vertex="1" parent="1">
          <mxGeometry x="-43" y="198" width="120" height="80" as="geometry" />
        </mxCell>
        <mxCell id="uKLCOhGHL4nUg3bJLCXZ-4" value="" style="endArrow=classic;html=1;rounded=0;entryX=0.5;entryY=0;entryDx=0;entryDy=0;" edge="1" parent="1" source="jwCLRGJzKMUdnOh82-B3-9" target="uKLCOhGHL4nUg3bJLCXZ-2">
          <mxGeometry width="50" height="50" relative="1" as="geometry">
            <mxPoint x="100" y="-40" as="sourcePoint" />
            <mxPoint x="215" y="178" as="targetPoint" />
          </mxGeometry>
        </mxCell>
        <mxCell id="uKLCOhGHL4nUg3bJLCXZ-5" value="" style="endArrow=classic;html=1;rounded=0;entryX=0;entryY=0;entryDx=0;entryDy=0;exitX=1;exitY=0.3333333333333333;exitDx=0;exitDy=0;exitPerimeter=0;" edge="1" parent="1" source="jwCLRGJzKMUdnOh82-B3-9" target="uKLCOhGHL4nUg3bJLCXZ-1">
          <mxGeometry width="50" height="50" relative="1" as="geometry">
            <mxPoint x="86" as="sourcePoint" />
            <mxPoint x="89" y="102" as="targetPoint" />
          </mxGeometry>
        </mxCell>
        <mxCell id="uKLCOhGHL4nUg3bJLCXZ-6" value="" style="endArrow=classic;html=1;rounded=0;entryX=0.684;entryY=0.058;entryDx=0;entryDy=0;exitX=0.5;exitY=0.5;exitDx=0;exitDy=0;exitPerimeter=0;entryPerimeter=0;" edge="1" parent="1" source="jwCLRGJzKMUdnOh82-B3-10" target="uKLCOhGHL4nUg3bJLCXZ-2">
          <mxGeometry width="50" height="50" relative="1" as="geometry">
            <mxPoint x="100" y="-40" as="sourcePoint" />
            <mxPoint x="313" y="122" as="targetPoint" />
          </mxGeometry>
        </mxCell>
        <mxCell id="uKLCOhGHL4nUg3bJLCXZ-7" value="" style="endArrow=classic;html=1;rounded=0;entryX=0.421;entryY=-0.007;entryDx=0;entryDy=0;exitX=0.5;exitY=0.5;exitDx=0;exitDy=0;exitPerimeter=0;entryPerimeter=0;" edge="1" parent="1" source="jwCLRGJzKMUdnOh82-B3-10" target="uKLCOhGHL4nUg3bJLCXZ-1">
          <mxGeometry width="50" height="50" relative="1" as="geometry">
            <mxPoint x="365" y="-30" as="sourcePoint" />
            <mxPoint x="111" y="107" as="targetPoint" />
          </mxGeometry>
        </mxCell>
      </root>
    </mxGraphModel>
  </diagram>
</mxfile>
